<?xml version="1.0" encoding="UTF-8" standalone="no"?>
<svg
   xmlns:dc="http://purl.org/dc/elements/1.1/"
   xmlns:cc="http://creativecommons.org/ns#"
   xmlns:rdf="http://www.w3.org/1999/02/22-rdf-syntax-ns#"
   xmlns:svg="http://www.w3.org/2000/svg"
   xmlns="http://www.w3.org/2000/svg"
   xmlns:sodipodi="http://sodipodi.sourceforge.net/DTD/sodipodi-0.dtd"
   xmlns:inkscape="http://www.inkscape.org/namespaces/inkscape"
   width="109.50709mm"
   height="61.308067mm"
   viewBox="0 0 109.50709 61.308067"
   version="1.1"
   id="svg8"
   inkscape:version="1.0.1 (3bc2e813f5, 2020-09-07)"
   sodipodi:docname="ascent.svg">
  <defs
     id="defs2" />
  <sodipodi:namedview
     id="base"
     pagecolor="#ffffff"
     bordercolor="#666666"
     borderopacity="1.0"
     inkscape:pageopacity="0.0"
     inkscape:pageshadow="2"
     inkscape:zoom="0.98994949"
     inkscape:cx="132.08825"
     inkscape:cy="136.16754"
     inkscape:document-units="mm"
     inkscape:current-layer="layer1"
     inkscape:document-rotation="0"
     showgrid="false"
     inkscape:window-width="1920"
     inkscape:window-height="1017"
     inkscape:window-x="-8"
     inkscape:window-y="-8"
     inkscape:window-maximized="1" />
  <metadata
     id="metadata5">
    <rdf:RDF>
      <cc:Work
         rdf:about="">
        <dc:format>image/svg+xml</dc:format>
        <dc:type
           rdf:resource="http://purl.org/dc/dcmitype/StillImage" />
        <dc:title></dc:title>
      </cc:Work>
    </rdf:RDF>
  </metadata>
  <g
     inkscape:label="Layer 1"
     inkscape:groupmode="layer"
     id="layer1"
     transform="translate(-16.509156,-89.296964)">
    <path
       style="fill:#000000;fill-opacity:1;stroke:#000000;stroke-width:0.264583px;stroke-linecap:butt;stroke-linejoin:miter;stroke-opacity:1"
       d="M 16.570711,150.47274 125.88395,93.009796 v 57.195674 z"
       id="path833" />
    <path
       style="fill:#000000;fill-opacity:1;stroke:none;stroke-width:0.146665;stroke-opacity:1"
       d="m 63.345719,89.68171 c 1.634505,-0.859784 3.657655,-0.228982 4.513569,1.398212 0.19184,0.364704 0.314177,0.752187 0.360511,1.157637 l 7.242809,6.134194 c 0.957791,-1.602207 2.33001,-2.922099 3.973361,-3.810403 l 0.215185,0.389439 c 0.03735,-0.01972 0.08302,-0.0437 0.129729,-0.0683 4.90351,-2.579305 10.964846,-0.692496 13.547326,4.217068 2.582455,4.909573 0.703157,10.973203 -4.200354,13.552513 -2.83937,1.49353 -6.217976,1.54922 -9.090575,0.1232 l -0.196427,0.40387 c -1.994392,-0.98056 -3.623731,-2.55989 -4.661645,-4.53306 -1.515059,-2.88028 -1.609556,-6.30511 -0.250444,-9.25263 l -1.233461,-1.056002 -5.27753,13.590562 c 0.378644,0.26646 0.693097,0.63877 0.909541,1.05024 0.80671,1.53364 0.226144,3.42541 -1.296278,4.22623 -0.112077,0.059 -0.20779,0.10033 -0.324716,0.15018 l 0.421177,2.188 0.608073,-0.31986 0.520942,0.99037 -2.521482,1.32633 -0.520942,-0.99037 0.87968,-0.46273 -0.473551,-2.53355 c -1.062315,0.0126 -2.048611,-0.50207 -2.644056,-1.37632 l -1.725897,0.76275 c 1.738266,4.7328 -0.292354,10.0045 -4.738204,12.34307 -4.688694,2.4663 -10.482142,0.85522 -13.240533,-3.66335 l -0.370132,0.23106 c -0.117567,-0.20083 -0.234627,-0.37725 -0.337929,-0.57362 -2.694187,-5.12195 -0.72582,-11.45833 4.386478,-14.15305 0.0011,-6e-4 0.0036,-0.002 0.008,-0.005 1.438363,-0.75659 3.023022,-1.17027 4.651355,-1.203 l 0.229781,-5.72245 -2.057087,-1.62806 -3.185011,0.18289 c -0.382014,0.0215 -0.73764,-0.18228 -0.91473,-0.51894 -0.250868,-0.47693 -0.07381,-1.07008 0.402527,-1.32065 1.717065,-0.974843 3.714189,-2.072931 5.731636,-3.134138 0.112077,-0.059 0.205348,-0.108055 0.30809,-0.162067 0.308221,-0.162066 0.3162,-0.166294 0.3162,-0.166294 0.354921,-0.186705 0.782586,-0.05694 0.969509,0.298389 0.118072,0.224454 0.09288,0.514199 -0.05849,0.72515 -0.814335,1.240184 -1.655469,2.38535 -2.543091,3.50888 l 2.019071,1.57553 16.065336,-8.450527 -2.766803,-2.337768 c 0.105247,-1.726824 -1.734296,-2.911956 -3.266059,-2.106215 -0.158782,0.08345 -0.317472,0.191754 -0.456573,0.312696 l -0.008,0.0032 -1.497844,1.373431 -0.414522,0.363127 -0.744956,-0.825901 0.410267,-0.371235 1.51022,-1.36955 c 0.203982,-0.178945 0.434844,-0.332288 0.687025,-0.464935 z m 7.457282,6.197545 -16.016685,8.424945 9.782789,7.72588 c 0.167121,-0.13566 0.35367,-0.25857 0.549811,-0.36174 0.102739,-0.0539 0.231494,-0.10758 0.339011,-0.15238 l -0.390641,-2.10045 -0.77428,0.40729 -0.51667,-0.98226 2.521482,-1.32631 0.516669,0.98224 -0.709421,0.37316 0.463499,2.44559 c 0.283213,-0.005 0.574612,0.0306 0.854869,0.10995 L 72.78966,97.570287 Z m -16.876448,9.151835 -0.185398,4.91145 c 2.8954,0.26785 5.575231,1.71038 7.366441,4.02753 0.388041,0.48836 0.715899,0.99694 1.006123,1.5487 0.03936,0.0748 0.07955,0.15127 0.123829,0.2354 l 1.302995,-0.60251 c -0.18605,-0.76174 -0.06641,-1.58097 0.325237,-2.26455 l -9.691228,-7.66004 z m 26.61226,-8.707644 c -1.475722,0.776259 -2.682074,1.9733 -3.458985,3.420649 l 4.046155,3.431825 c 0.863003,0.62055 1.993803,0.70788 2.937146,0.21168 0.03735,-0.0197 0.08584,-0.0453 0.141891,-0.0746 l 0.008,-0.005 c 0.261524,-0.13755 0.600005,-0.0401 0.74266,0.23118 0.142648,0.27119 0.0325,0.60473 -0.238373,0.7472 -1.418183,0.81763 -3.196433,0.6765 -4.451411,-0.39453 l 0.01073,0.0203 -3.686693,-3.10264 c -0.849947,2.23794 -0.686918,4.74514 0.429694,6.86795 2.159445,4.10532 7.236411,5.68672 11.346023,3.52504 4.090931,-2.15188 5.674766,-7.23693 3.515318,-11.342279 -2.159446,-4.105322 -7.25125,-5.689294 -11.342178,-3.537412 z M 48.9311,112.94943 c -4.109742,2.16176 -5.677963,7.25053 -3.523435,11.3465 2.164365,4.11469 7.240675,5.69488 11.350287,3.53317 3.670631,-1.9308 5.380394,-6.28197 4.008129,-10.22827 l -6.74892,3.00072 c -0.07267,0.36057 -0.297841,0.68003 -0.615401,0.84709 -0.588422,0.30951 -1.311577,0.0844 -1.621475,-0.50477 -0.300058,-0.57043 -0.09151,-1.28042 0.468394,-1.59882 l 0.285675,-7.34786 c -1.255148,0.0401 -2.491792,0.36761 -3.603254,0.95224 z m 4.718863,-0.91725 -0.287192,7.2761 0.312254,0.22959 6.64352,-2.94529 c -0.01041,-0.0424 -0.02986,-0.0765 -0.04956,-0.11389 -1.313369,-2.49686 -3.818044,-4.17681 -6.619046,-4.44656 z"
       id="path5707" />
  </g>
</svg>
