<?xml version="1.0" encoding="UTF-8" standalone="no"?>
<svg
   xmlns:dc="http://purl.org/dc/elements/1.1/"
   xmlns:cc="http://creativecommons.org/ns#"
   xmlns:rdf="http://www.w3.org/1999/02/22-rdf-syntax-ns#"
   xmlns:svg="http://www.w3.org/2000/svg"
   xmlns="http://www.w3.org/2000/svg"
   xmlns:sodipodi="http://sodipodi.sourceforge.net/DTD/sodipodi-0.dtd"
   xmlns:inkscape="http://www.inkscape.org/namespaces/inkscape"
   width="210mm"
   height="210mm"
   viewBox="0 0 210 210"
   version="1.1"
   id="svg8"
   inkscape:version="1.0.1 (3bc2e813f5, 2020-09-07)"
   sodipodi:docname="shutdown.svg">
  <defs
     id="defs2" />
  <sodipodi:namedview
     id="base"
     pagecolor="#ffffff"
     bordercolor="#666666"
     borderopacity="1.0"
     inkscape:pageopacity="0.0"
     inkscape:pageshadow="2"
     inkscape:zoom="0.7"
     inkscape:cx="114.64442"
     inkscape:cy="478.87555"
     inkscape:document-units="mm"
     inkscape:current-layer="layer1"
     inkscape:document-rotation="0"
     showgrid="false"
     inkscape:window-width="1920"
     inkscape:window-height="1017"
     inkscape:window-x="-8"
     inkscape:window-y="-8"
     inkscape:window-maximized="1" />
  <metadata
     id="metadata5">
    <rdf:RDF>
      <cc:Work
         rdf:about="">
        <dc:format>image/svg+xml</dc:format>
        <dc:type
           rdf:resource="http://purl.org/dc/dcmitype/StillImage" />
        <dc:title></dc:title>
      </cc:Work>
    </rdf:RDF>
  </metadata>
  <g
     inkscape:label="Layer 1"
     inkscape:groupmode="layer"
     id="layer1">
    <rect
       style="fill:#ff0000;stroke:#000000;stroke-width:0.201792"
       id="rect833"
       width="209.7982"
       height="209.7982"
       x="0.100896"
       y="0.100896"
       ry="30.50902" />
    <path
       id="path837"
       style="fill:#ffffff;stroke:#000000;stroke-width:0;stroke-miterlimit:4;stroke-dasharray:none"
       d="m 104.97344,57.507604 a 54.900856,54.90085 0 0 0 -54.874174,54.900566 54.900856,54.90085 0 0 0 54.900524,54.90104 54.900856,54.90085 0 0 0 54.90104,-54.90104 54.900856,54.90085 0 0 0 -54.90104,-54.900566 54.900856,54.90085 0 0 0 -0.0264,0 z m -0.076,17.000513 a 37.797618,37.797618 0 0 1 37.79769,37.797733 37.797618,37.797618 0 0 1 -37.79769,37.79769 37.797618,37.797618 0 0 1 -37.79769,-37.79769 37.797618,37.797618 0 0 1 37.79769,-37.797733 z" />
    <rect
       style="fill:#ffffff;stroke:#000000;stroke-width:0;stroke-miterlimit:4;stroke-dasharray:none"
       id="rect846"
       height="70.676323"
       x="97.102608"
       y="32.886555"
       width="15.794777" />
  </g>
</svg>
